[img]http://imageshack.us/a/img832/6362/exciteds4.jpg[/img]

[b][color=black]The Vampire Diaries S04E01 HDTV x264 AAC -Sebastian[Ub3r]

Format                           : MPEG-4
Format profile                   : Base Media / Version 2
Codec ID                         : mp42
File size                        : 126 MiB
Duration                         : 42mn 2s
Overall bit rate                 : 420 Kbps
Encoded date                     : UTC 2012-10-12 16:18:54
Tagged date                      : UTC 2012-10-12 16:27:58

Video
ID                               : 1
Format                           : AVC
Format/Info                      : Advanced Video Codec
Format profile                   : Main@L3.0
Format settings, CABAC           : Yes
Format settings, ReFrames        : 4 frames
Format settings, GOP             : M=4, N=43
Codec ID                         : avc1
Codec ID/Info                    : Advanced Video Coding
Duration                         : 42mn 2s
Bit rate mode                    : Variable
Bit rate                         : 303 Kbps
Width                            : 640 pixels
Height                           : 360 pixels
Display aspect ratio             : 16:9
Frame rate mode                  : Variable
Frame rate                       : 23.976 fps
Minimum frame rate               : 23.974 fps
Maximum frame rate               : 90 000.000 fps
Color space                      : YUV
Chroma subsampling               : 4:2:0
Bit depth                        : 8 bits
Scan type                        : Progressive
Bits/(Pixel*Frame)               : 0.055
Stream size                      : 91.2 MiB (72%)
Writing library                  : x264 core 120
Encoded date                     : UTC 2012-10-12 16:18:54
Tagged date                      : UTC 2012-10-12 16:27:57

Audio
ID                               : 2
Format                           : AAC
Format/Info                      : Advanced Audio Codec
Format profile                   : LC
Codec ID                         : 40
Duration                         : 42mn 2s
Bit rate mode                    : Variable
Bit rate                         : 112 Kbps
Maximum bit rate                 : 214 Kbps
Channel(s)                       : 2 channels
Channel positions                : Front: L R
Sampling rate                    : 48.0 KHz
Compression mode                 : Lossy
Stream size                      : 33.7 MiB (27%)
Encoded date                     : UTC 2012-10-12 16:18:54
Tagged date                      : UTC 2012-10-12 16:27:56

[b]SCREENSHOTS[/color][/b]

[img]http://imageshack.us/a/img502/7407/thevampirediariess04e01.jpg[/img]

[img]http://kastatic.com/i2/users/133df62bbf28e62494bb17fe11078f1a.gif[/img][img]http://kastatic.com/i2/users/133df62bbf28e62494bb17fe11078f1a.gif[/img]